<svg width="71" height="40" viewBox="0 0 71 40" fill="none" xmlns="http://www.w3.org/2000/svg">
<path d="M63.5264 40C60.0438 40 57.1177 37.4505 56.2879 34.0001H47.7221C44.0685 34.0001 40.9504 31.1723 40.3499 27.3153L40.0428 25.3425C39.8975 24.4084 39.4473 23.5599 38.7723 22.9478C38.0973 22.3358 37.2413 21.9999 36.3567 22.0001H33.3966C32.5668 25.4505 29.6407 27.9999 26.1582 27.9999C22.6756 27.9999 19.7495 25.4505 18.92 22.0001H14.7118C13.882 25.4505 10.9559 27.9999 7.47334 27.9999C3.34617 27.9999 0 24.4184 0 20C0 15.5816 3.34587 12.0001 7.47364 12.0001C10.9562 12.0001 13.8823 14.5495 14.7121 17.9999H18.9197C19.7492 14.5495 22.6756 12.0001 26.1579 12.0001C29.6404 12.0001 32.5665 14.5495 33.3963 17.9999H36.357C37.2416 18 38.0975 17.6641 38.7724 17.0521C39.4473 16.44 39.8975 15.5915 40.0428 14.6575L40.3499 12.6847C40.9504 8.8277 44.0685 5.99987 47.7221 5.99987H48.8143C49.6438 2.54979 52.5702 0 56.0527 0C60.1802 0 63.5264 3.58149 63.5264 7.99993C63.5264 12.4184 60.1805 15.9999 56.0527 15.9999C52.5702 15.9999 49.6438 13.4507 48.8143 10H47.7221C46.8374 9.99988 45.9815 10.3357 45.3065 10.9478C44.6315 11.5598 44.1813 12.4084 44.036 13.3424L43.7292 15.3152C43.4482 17.1298 42.5902 18.7847 41.3004 20C42.5902 21.2153 43.4482 22.8702 43.7292 24.6848L44.0363 26.6576C44.1816 27.5916 44.6318 28.4401 45.3067 29.0521C45.9816 29.6642 46.8375 30 47.7221 30H56.2879C57.1177 26.5496 60.0438 24.0001 63.5264 24.0001C67.6538 24.0001 71 27.5816 71 32.0001C71 36.4185 67.6541 40 63.5264 40ZM63.5264 35.9999C64.0171 35.9999 64.503 35.8965 64.9564 35.6955C65.4097 35.4945 65.8217 35.1999 66.1687 34.8284C66.5157 34.457 66.7909 34.0161 66.9787 33.5308C67.1664 33.0455 67.2631 32.5253 67.263 32.0001C67.2631 31.4748 67.1665 30.9546 66.9788 30.4693C66.791 29.9839 66.5158 29.5429 66.1688 29.1715C65.8218 28.8 65.4098 28.5054 64.9564 28.3043C64.503 28.1033 64.0171 27.9999 63.5264 27.9999C63.0356 27.9999 62.5496 28.1033 62.0962 28.3043C61.6428 28.5053 61.2308 28.7999 60.8838 29.1714C60.5367 29.5428 60.2615 29.9838 60.0737 30.4692C59.8859 30.9545 59.7893 31.4747 59.7894 32.0001C59.7894 32.5254 59.886 33.0455 60.0738 33.5308C60.2616 34.0162 60.5368 34.4571 60.8839 34.8286C61.2309 35.2 61.6429 35.4946 62.0963 35.6956C62.5497 35.8966 63.0356 36 63.5264 35.9999ZM7.47364 24.0001C7.9644 24.0002 8.45038 23.8968 8.9038 23.6958C9.35723 23.4948 9.76922 23.2002 10.1162 22.8287C10.4633 22.4572 10.7385 22.0162 10.9263 21.5309C11.1141 21.0455 11.2107 20.5253 11.2106 20C11.2107 19.4747 11.1141 18.9545 10.9263 18.4691C10.7385 17.9838 10.4633 17.5428 10.1162 17.1713C9.76922 16.7998 9.35723 16.5052 8.9038 16.3042C8.45038 16.1032 7.9644 15.9998 7.47364 15.9999C6.98289 15.9998 6.49695 16.1033 6.04356 16.3043C5.59017 16.5053 5.17821 16.7999 4.83122 17.1714C4.48423 17.5429 4.20899 17.9839 4.02124 18.4692C3.83349 18.9545 3.73689 19.4747 3.73697 20C3.73689 20.5253 3.83349 21.0455 4.02124 21.5308C4.20899 22.0161 4.48423 22.4571 4.83122 22.8286C5.17821 23.2 5.59017 23.4947 6.04356 23.6957C6.49695 23.8967 6.98289 24.0002 7.47364 24.0001ZM26.1579 24.0001C26.6486 24.0002 27.1346 23.8968 27.588 23.6958C28.0415 23.4948 28.4535 23.2002 28.8005 22.8287C29.1475 22.4572 29.4228 22.0162 29.6105 21.5309C29.7983 21.0455 29.8949 20.5253 29.8948 20C29.8949 19.4747 29.7983 18.9545 29.6105 18.4691C29.4228 17.9838 29.1475 17.5428 28.8005 17.1713C28.4535 16.7998 28.0415 16.5052 27.588 16.3042C27.1346 16.1032 26.6486 15.9998 26.1579 15.9999C25.6671 15.9998 25.1812 16.1033 24.7278 16.3043C24.2744 16.5053 23.8625 16.7999 23.5155 17.1714C23.1685 17.5429 22.8932 17.9839 22.7055 18.4692C22.5177 18.9545 22.4211 19.4747 22.4212 20C22.4211 20.5253 22.5177 21.0455 22.7055 21.5309C22.8933 22.0162 23.1685 22.4572 23.5156 22.8287C23.8626 23.2002 24.2746 23.4948 24.728 23.6958C25.1814 23.8968 25.6671 24.0002 26.1579 24.0001ZM56.053 12.0001C56.5438 12.0001 57.0297 11.8967 57.4831 11.6957C57.9365 11.4946 58.3484 11.2 58.6954 10.8285C59.0424 10.4571 59.3177 10.0161 59.5054 9.53074C59.6932 9.04541 59.7898 8.52523 59.7897 7.99993C59.7897 7.47466 59.6931 6.95452 59.5053 6.46923C59.3176 5.98393 59.0423 5.54297 58.6953 5.17155C58.3483 4.80013 57.9364 4.5055 57.483 4.30451C57.0297 4.10352 56.5437 4.00008 56.053 4.00012C55.5623 4.00004 55.0763 4.10344 54.6229 4.30442C54.1695 4.50539 53.7575 4.80001 53.4105 5.17144C53.0635 5.54287 52.7882 5.98384 52.6004 6.46915C52.4126 6.95448 52.316 7.47463 52.3161 7.99993C52.316 8.52526 52.4126 9.04546 52.6004 9.53081C52.7881 10.0162 53.0634 10.4572 53.4104 10.8286C53.7574 11.2001 54.1694 11.4947 54.6229 11.6957C55.0763 11.8967 55.5623 12.0001 56.053 12.0001Z" fill="#161DC8"/>
</svg>
